<?xml version="1.0" standalone="no"?>
<!DOCTYPE svg PUBLIC "-//W3C//DTD SVG 20010904//EN"
 "http://www.w3.org/TR/2001/REC-SVG-20010904/DTD/svg10.dtd">
<svg version="1.0" xmlns="http://www.w3.org/2000/svg"
 width="160.000000pt" height="160.000000pt" viewBox="0 0 160.000000 160.000000"
 preserveAspectRatio="xMidYMid meet">
<metadata>
Created by potrace 1.14, written by Peter Selinger 2001-2017
</metadata>
<g transform="translate(0.000000,160.000000) scale(0.100000,-0.100000)"
fill="#000000" stroke="none">
<path d="M747 1594 c-1 -1 -27 -5 -56 -8 -64 -8 -160 -34 -178 -48 -7 -6 -13
-8 -13 -4 0 8 -103 -48 -160 -87 -25 -17 -71 -57 -103 -90 -258 -260 -305
-655 -116 -973 23 -38 76 -103 118 -144 92 -90 97 -94 196 -150 36 -20 175
-72 175 -65 0 2 12 0 28 -6 15 -6 76 -12 136 -15 303 -11 577 142 724 406 38
68 77 177 91 250 12 67 7 247 -8 312 -83 353 -389 608 -748 621 -46 2 -85 2
-86 1z"/>
</g>
</svg>
